Coordinates
version=1
nRows=22
nColumns=24
inDegrees=yes

Units are S.I. units (second, meters, Newtons, ...)
Angles are in degrees.

endheader
time	pelvis_tilt	pelvis_list	pelvis_rotation	pelvis_tx	pelvis_ty	pelvis_tz	hip_flexion_r	hip_adduction_r	hip_rotation_r	knee_angle_r	ankle_angle_r	subtalar_angle_r	mtp_angle_r	hip_flexion_l	hip_adduction_l	hip_rotation_l	knee_angle_l	ankle_angle_l	subtalar_angle_l	mtp_angle_l	lumbar_extension	lumbar_bending	lumbar_rotation
      1.97000000	     24.69385224	     -1.55637906	     -3.42601069	     -0.54892389	      0.95629289	      0.00524248	    -46.75199193	      2.00145905	     -7.11219524	     -1.09338193	     10.73772121	     14.01724352	     19.91456119	     -7.12843369	      2.11836154	    -23.69722202	      2.16926962	      2.78490758	     17.95957995	     31.91505160	    -32.57571912	     -0.08141755	      5.94243319
      1.97500000	     24.70050224	     -1.49056017	     -3.60508086	     -0.54225692	      0.95566629	      0.00540794	    -46.93387844	      1.75184870	     -6.94906522	     -1.55267688	     10.71923481	     13.97929111	     19.97603433	     -7.22125467	      2.21198732	    -23.58783184	      1.69983912	      2.66917628	     17.70256557	     31.89712900	    -32.47313719	     -0.29805380	      5.90922369
      1.98000000	     24.77932222	     -1.45395319	     -3.75873204	     -0.53586469	      0.95519683	      0.00546052	    -47.18680674	      1.53407591	     -6.76727873	     -1.97182750	     10.54276376	     13.96327321	     20.37010963	     -7.41507127	      2.28566847	    -23.17826642	      1.23688298	      1.90611881	     16.78371445	     31.68378678	    -32.48790022	     -0.46534434	      5.89089868
      1.98500000	     24.67614668	     -1.46507821	     -3.86009680	     -0.52949694	      0.95451734	      0.00542859	    -47.17590117	      1.39520036	     -6.54439335	     -2.52722277	     10.33883922	     13.77881785	     21.73839055	     -7.37674496	      2.30496422	    -22.75728882	      0.72089084	      0.28009405	     15.50965374	     31.42825092	    -32.30508481	     -0.56314692	      5.88643987
      1.99000000	     24.71724290	     -1.34637404	     -4.11272472	     -0.52290437	      0.95412217	      0.00545265	    -47.34590894	      1.01933592	     -6.33538288	     -2.99939328	      9.93217223	     13.75070970	     23.69975229	     -7.54847946	      2.53971711	    -22.62944899	      0.34762034	     -1.31506756	     13.99629734	     31.93914818	    -32.24991800	     -0.85017479	      5.94773111
      1.99500000	     24.72161336	     -1.14503116	     -4.29064125	     -0.51650226	      0.95380687	      0.00541050	    -47.42612895	      0.63487282	     -6.17171812	     -3.54627165	      9.63591503	     13.63514415	     24.93260075	     -7.61258327	      2.82120808	    -22.39493650	     -0.10859763	     -2.51267093	     12.77155219	     32.68723613	    -32.17881862	     -1.17774776	      5.91117238
      2.00000000	     24.68625476	     -0.93252718	     -4.41503238	     -0.50999927	      0.95351562	      0.00534968	    -47.42608903	      0.29710845	     -6.08622524	     -4.17708786	      9.38320483	     13.46832706	     25.83577173	     -7.63564818	      3.09684729	    -22.09514953	     -0.55358554	     -3.26899244	     12.03972724	     33.37715043	    -32.05773135	     -1.50300122	      5.75493606
      2.00500000	     24.61403632	     -0.75167958	     -4.64268362	     -0.50370784	      0.95334165	      0.00532449	    -47.34329508	     -0.09978193	     -5.84858877	     -4.84609876	      9.17941684	     13.33561347	     25.94393431	     -7.56820605	      3.30858581	    -21.95051029	     -1.16454162	     -4.03993786	     11.87420122	     33.35763904	    -31.89450607	     -1.85244291	      5.73864875
      2.01000000	     24.51886345	     -0.54475492	     -4.73114624	     -0.49754678	      0.95321437	      0.00513888	    -47.20394029	     -0.40275150	     -5.71242161	     -5.54390428	      8.69422559	     12.96050290	     28.53085143	     -7.43289130	      3.51235546	    -21.39520867	     -1.79831790	     -5.27011235	     10.84323837	     35.41401195	    -31.73553574	     -2.15012217	      5.57770421
      2.01500000	     24.44251310	     -0.26980132	     -4.81643187	     -0.49118777	      0.95317568	      0.00497671	    -47.08514236	     -0.75804041	     -5.65827434	     -6.27248576	      8.36643322	     12.81243191	     28.88570290	     -7.25396557	      3.75722503	    -21.04061326	     -2.65526911	     -6.00788651	     10.30650321	     35.33281396	    -31.59112330	     -2.50972985	      5.36330051
      2.02000000	     24.36691757	      0.08800695	     -4.82834160	     -0.48470627	      0.95311427	      0.00473877	    -46.93840802	     -1.12768816	     -5.68847448	     -7.04661173	      7.68070808	     12.48927900	     31.58731306	     -7.05660875	      4.08240595	    -20.45568664	     -3.58445850	     -6.37308694	      9.17274228	     35.29619748	    -31.42538452	     -2.93142381	      5.04286821
      2.02500000	     24.20161078	      0.32697962	     -4.80035602	     -0.47840230	      0.95304733	      0.00444331	    -46.61879567	     -1.35799375	     -5.60658661	     -7.97004590	      7.19437511	     11.92720030	     32.95851957	     -6.76759537	      4.26838270	    -19.67244112	     -4.49848296	     -6.63094715	      7.78130031	     35.20497664	    -31.18995419	     -3.22035266	      4.82408439
      2.03000000	     23.98119296	      0.57147954	     -4.72111113	     -0.47184116	      0.95293071	      0.00423305	    -46.30111133	     -1.53549066	     -5.46700026	     -8.78316700	      6.68648978	     11.41559711	     33.51898523	     -6.39226770	      4.42412723	    -19.04074261	     -5.50201501	     -6.42979505	      6.49114466	     35.14351195	    -30.87555890	     -3.48484994	      4.54095853
      2.03500000	     23.87505386	      0.90465497	     -4.69576601	     -0.46513833	      0.95294113	      0.00396309	    -46.04064451	     -1.84756909	     -5.52197753	     -9.71545541	      6.09750242	     11.01552498	     35.93941901	     -6.17415634	      4.72540539	    -18.50600744	     -6.45869801	     -5.95021175	      5.02958944	     34.54506385	    -30.67530222	     -3.86098356	      4.28034772
      2.04000000	     23.67112950	      1.19082745	     -4.54752699	     -0.45852792	      0.95281926	      0.00353422	    -45.62256743	     -2.01921933	     -5.48769804	    -10.78035853	      5.68539735	     10.53114741	     36.18622686	     -5.78437526	      4.94102257	    -17.79931736	     -7.56588680	     -5.53988077	      3.93225158	     34.24820361	    -30.38116997	     -4.14063620	      3.98955855
      2.04500000	     23.52479874	      1.59219082	     -4.45485708	     -0.45169180	      0.95278898	      0.00315629	    -45.24749583	     -2.35082933	     -5.75912243	    -11.84056707	      4.68486788	     10.49584005	     39.09072856	     -5.53629779	      5.31540069	    -17.15691780	     -8.60904996	     -4.72360559	      3.75474377	     31.63921861	    -30.10288437	     -4.56840599	      3.64232820
      2.05000000	     23.34366807	      1.94832894	     -4.26177062	     -0.44500829	      0.95279464	      0.00251929	    -44.75749122	     -2.60522410	     -6.09008454	    -13.07899985	      4.03337263	     10.52903068	     39.35563981	     -5.26612120	      5.65281942	    -16.35948615	     -9.60553277	     -4.12751118	      3.58468661	     31.39585391	    -29.83929521	     -4.88178482	      3.26605544
      2.05500000	     23.21600269	      2.27710709	     -4.21411533	     -0.43836687	      0.95290707	      0.00209299	    -44.27214711	     -2.92909556	     -6.15477293	    -14.33721086	      2.87521825	      9.74781990	     42.80578100	     -5.10426029	      6.00312873	    -15.78022337	    -10.52637076	     -3.16858673	      3.38744482	     28.28883974	    -29.62685202	     -5.24335055	      3.02256898
      2.06000000	     23.08059134	      2.55896899	     -4.08032933	     -0.43180644	      0.95309060	      0.00154901	    -43.70397897	     -3.17614518	     -6.34480346	    -15.75859490	      2.01260760	      9.37246607	     44.14804057	     -4.96079783	      6.28177442	    -15.16389141	    -11.38358071	     -2.26793632	      3.08711405	     26.28042290	    -29.41719307	     -5.51287040	      2.75142421
      2.06500000	     22.96834330	      2.86163362	     -4.04380183	     -0.42502705	      0.95337907	      0.00124187	    -43.14254700	     -3.50966947	     -6.50252993	    -17.16412727	      0.84122525	      9.08534669	     45.81043718	     -4.88712105	      6.57153964	    -14.83317959	    -12.17259269	     -1.41638754	      3.03307450	     24.29780413	    -29.19302607	     -5.87355059	      2.56318728
      2.07000000	     22.87677082	      3.18990251	     -4.00606395	     -0.41836821	      0.95369854	      0.00082583	    -42.53861679	     -3.88661366	     -6.69023385	    -18.65828649	     -0.33217632	      8.80452705	     47.56571204	     -4.92936894	      6.92818401	    -14.43177917	    -12.75148100	     -0.68943731	      3.02249290	     22.99569955	    -29.01201781	     -6.24518519	      2.37637738
      2.07500000	     22.80540277	      3.53120501	     -4.01540325	     -0.41154825	      0.95410871	      0.00043174	    -41.86664513	     -4.34957851	     -6.99733475	    -20.30361932	     -1.60635405	      8.65711445	     49.39260681	     -5.07043726	      7.32136983	    -14.05540579	    -13.20169043	     -0.00986569	      3.15098047	     21.74714670	    -28.81751546	     -6.64008513	      2.19849167
